HIERARCHY
ROOT Hips
{
	OFFSET -0.131879162192 -21.9469028045 2.70841930899
	CHANNELS 6 Xposition Yposition Zposition Zrotation Yrotation Xrotation
	JOINT LeftHip
	{
		OFFSET 6.85355635221 -9.0130395607 -0.753961147773
		CHANNELS 3 Zrotation Yrotation Xrotation
		JOINT LeftKnee
		{
			OFFSET 3.15889238677 -36.2917314635 -0.573596775041
			CHANNELS 3 Zrotation Yrotation Xrotation
			JOINT LeftFoot
			{
				OFFSET -1.24058769159 -38.2657043322 -4.2055947007
				CHANNELS 3 Zrotation Yrotation Xrotation
				End LeftToe
				{
                                  OFFSET 2.43909109126 -5.42784805121 11.4732342346
				}
			}
		}
	}
	JOINT RightHip
	{
		OFFSET -6.63343835974 -8.95769947839 -0.436864613367
		CHANNELS 3 Zrotation Yrotation Xrotation
		JOINT RightKnee
		{
			OFFSET -3.64534648899 -36.9807102363 -0.880137782384
			CHANNELS 3 Zrotation Yrotation Xrotation
			JOINT RightFoot
			{
				OFFSET 1.48267018555 -38.3423287233 -4.03225626541
				CHANNELS 3 Zrotation Yrotation Xrotation
				End RightToe
				{
                                        OFFSET -2.19553313664 -4.64678256852 11.8403741145
				}
			}
		}
	}
	JOINT Waist
	{
		OFFSET -0.246479881229 10.5329949331 -2.31197694915
		CHANNELS 3 Zrotation Yrotation Xrotation
		JOINT Spine
		{
			OFFSET 0.471216834396 13.164509377 0.070981423491
			CHANNELS 3 Zrotation Yrotation Xrotation
                        JOINT Chest
                        {
                            OFFSET 0.164698149605 5.122848834 2.62669439803
                            CHANNELS 3 Zrotation Yrotation Xrotation
                            JOINT Neck
                            {
                                OFFSET -0.256072381976 21.1914227623 -4.88680588014
                                CHANNELS 3 Zrotation Yrotation Xrotation
                                End Head
                                {
                                        OFFSET -0.132729036538 26.4516789339 2.16576710312
                                }
                            }
                            JOINT LeftInnerShoulder
                            {
                                OFFSET 7.55385011711 11.9764274099 -3.7274102243
                                CHANNELS 3 Zrotation Yrotation Xrotation
                                JOINT LeftShoulder
                                {
                                        OFFSET 8.60612620371 2.89516919918 -0.762643959854
                                        CHANNELS 3 Zrotation Yrotation Xrotation
                                        JOINT LeftElbow
                                        {
                                                OFFSET 24.9375259027 -1.00229121107 -2.55451757982
                                                CHANNELS 3 Zrotation Yrotation Xrotation
                                                End LeftWrist
                                                {
                                                        OFFSET 23.5099700491 0.78928696605 -0.126162993967
                                                }
                                        }
                                }
                            }
                            JOINT RightInnerShoulder
                            {
                                OFFSET -7.81074292933 11.7467323822 -4.15770897763
                                CHANNELS 3 Zrotation Yrotation Xrotation
                                JOINT RightShoulder
                                {
                                        OFFSET -9.0271368368 3.08630859858 -0.906436382806
                                        CHANNELS 3 Zrotation Yrotation Xrotation
                                        JOINT RightElbow
                                        {
                                                OFFSET -24.3126237748 -1.1810383789 -1.88336090891
                                                CHANNELS 3 Zrotation Yrotation Xrotation
                                                End RightWrist
                                                {
                                                        OFFSET -24.2647917079 0.809160162446 -0.508600207906
                                                }
                                        }
                                }
                            }
                        }
                }
            }
}
MOTION
Frames: 18
Frame Time: 0.0333333333333
279.29160 -8.27235 0.23621 2.68910 75.45608 32.97011 5.51685 -8.05753 -11.77406 -9.97772 -11.46145 61.82885 -5.17964 17.16762 24.63350 6.53389 -8.27313 -21.59611 3.41413 -8.20752 76.96449 14.67243 -31.08353 24.69606 -3.50972 2.24857 5.51400 -13.04229 -0.71949 -8.66327 -6.10916 5.72227 2.69041 -11.26923 -14.72431 -5.83196 43.13262 -14.37415 -32.09630 18.83958 -29.95461 -35.37020 32.42071 -28.95888 -43.76019 -56.58918 17.12203 -35.00399 -21.43314 18.86501 -39.66933 -19.99551 19.11409 -40.24631
304.49221 -3.66564 0.36073 28.97699 78.58780 53.20936 10.39206 -5.07754 -24.14974 -13.57280 -3.80431 83.47060 -2.30351 14.83506 1.21536 5.16924 -7.57687 -28.49223 5.57523 -9.87445 95.93208 20.52530 -28.05133 2.79844 -5.05924 2.80914 9.59739 -11.82413 -0.76518 -6.63352 -5.97724 4.78279 5.15090 -5.23649 -10.53537 -12.92160 38.18295 -11.89141 -27.65761 8.47515 -31.18891 -28.46212 31.16514 -42.20241 -36.30138 -50.92906 15.52964 -31.21202 -20.38640 24.93098 -40.90022 -25.17458 31.41370 -39.66199
329.68516 0.88940 0.46534 64.47543 80.52655 80.75700 13.78825 -4.72040 -35.86494 -16.25547 1.66186 102.55049 1.28995 11.29511 -7.07200 3.80845 -9.89505 -37.44972 5.14320 -13.77742 109.44588 17.16658 -22.44388 -9.55165 -3.51536 4.26892 18.65834 -12.75367 1.70862 -5.74913 -5.73730 5.15708 5.24322 -4.60572 -7.51479 -9.74202 33.13093 -17.59573 -27.76658 0.36197 -36.86847 -22.79181 28.63458 -44.90749 -34.99733 -48.08628 20.31131 -28.56430 -12.96923 23.93693 -33.62202 -15.59738 30.80918 -28.29405
350.23825 -1.68231 0.57045 68.84317 82.34738 80.35030 18.65584 -4.21601 -47.27895 -13.46643 0.73591 107.68842 1.71444 11.72249 -3.46444 5.77764 -4.65150 -51.02187 2.95609 -19.32672 106.76816 12.48296 -21.45544 -8.13721 -3.15337 5.87611 23.76838 -9.53957 2.08287 -4.75365 -2.93610 4.76032 7.58423 -2.20266 -1.11438 -7.49384 26.49565 -14.12163 -24.43752 -15.82068 -41.64640 -10.47556 35.84285 -45.32543 -48.76716 -39.83822 20.99573 -21.71287 -5.60772 31.58428 -26.89607 -17.42102 39.52734 -30.41144
371.78530 -1.61284 0.64918 76.11605 82.56558 81.81319 21.07938 -4.08862 -57.56066 -10.23538 0.14968 103.92629 5.05320 15.77356 -9.73199 6.10481 -0.92869 -62.17721 1.53644 -19.77929 102.46380 7.72230 -17.14368 -13.56564 -3.10027 5.27388 36.69782 -9.09118 2.51425 -6.47405 -0.57191 4.28938 8.12155 -1.95267 2.25791 -3.42262 22.48441 -13.74825 -19.56030 -27.42653 -32.77271 -1.81364 39.98602 -56.29058 -38.79540 -37.11911 21.59094 -18.47884 8.87111 34.51432 -19.14829 -11.22347 32.99913 -10.80955
393.19126 -2.92540 0.76770 119.46731 79.00114 120.77676 20.26289 -2.47523 -62.96487 -5.96453 -1.02553 78.42880 3.86356 15.63410 -4.65908 2.84732 -3.54136 -67.95351 0.52545 -20.09915 83.07294 6.32106 -17.69708 -6.44790 -1.99425 4.34093 48.37848 -7.40922 0.98442 -7.44979 1.63455 2.24695 8.12167 -3.54423 0.72284 -2.99928 18.46080 -21.77490 -17.75657 -28.45440 -37.41493 -3.94844 16.58978 -29.89668 -32.27126 -33.25690 23.57343 -16.22949 23.06564 35.07661 -10.19826 -9.28620 24.51041 -14.18924
417.08759 -9.60733 0.87132 128.14814 76.38255 127.89947 18.92483 -0.66345 -62.44186 -2.23987 -6.76123 55.71292 -1.60231 13.14039 6.59784 1.43607 -3.70274 -69.45369 0.51789 -19.38568 62.65652 7.71310 -19.61157 -2.13986 0.52890 3.87182 55.13379 -6.90824 0.01235 -7.55993 3.21962 2.36433 8.38611 -6.22146 1.19220 -8.32626 18.63307 -24.67856 -17.88124 -33.80462 -40.06256 -3.33611 6.13355 -3.93439 -27.99649 -32.28632 27.53642 -14.46966 31.99477 36.96935 -8.46371 -5.45220 11.53686 -12.05674
444.28681 -22.90171 0.97099 112.79628 77.64523 112.41588 20.33792 -0.37517 -60.57575 2.48794 -4.79412 42.49652 -4.75540 13.67005 12.26617 3.53337 -1.19766 -71.02662 0.10223 -21.89104 42.82310 8.60175 -14.69661 8.07412 -0.42136 5.35439 56.62286 -7.69599 2.06874 -6.01427 4.00999 4.70538 6.97296 -11.25602 0.15886 -6.43376 19.36768 -20.93776 -15.23217 -43.93192 -33.99930 4.36263 10.32886 -17.85878 -24.85425 -29.59464 27.57812 -10.42999 41.14668 37.20482 -3.34852 -9.65008 15.74767 -8.96211
469.80650 -42.92014 1.11421 135.57715 72.18799 130.44873 17.90415 -1.03136 -62.88657 1.70336 -5.35603 38.35391 -5.78727 10.40314 17.75591 0.56603 -7.21152 -69.77080 0.16903 -25.19691 41.25484 9.16389 -15.40737 11.25533 2.24073 5.01707 59.36664 -4.60446 1.42504 -6.04318 5.41501 4.29615 7.18598 -11.24124 -1.30256 -5.35075 19.73402 -22.98152 -16.11335 -43.30714 -40.71356 5.43957 10.45258 -16.79862 -22.05654 -24.51317 28.33083 -7.43274 44.80807 33.03500 -1.35311 -9.86949 15.19682 -9.22939
494.84387 -68.18667 1.22966 137.49783 70.26481 129.03876 19.78644 -1.40742 -67.35131 -1.17595 -11.10778 43.33504 -5.24643 5.35943 15.40560 -1.52908 -8.11242 -73.77297 -1.48310 -21.57046 53.19323 11.15249 -15.55911 9.22820 1.77613 5.40311 60.86501 -4.78818 2.51899 -8.67101 4.46590 4.41789 8.38963 -6.06478 -3.52516 -7.13791 18.13334 -17.74458 -16.07048 -50.87544 -46.14787 7.81881 17.18447 -22.70370 -20.19096 -22.70055 23.48216 -7.73673 53.12568 33.30875 2.65257 -15.47939 15.59689 -6.88575
520.69099 -89.67234 1.29283 137.78789 67.23234 121.91326 20.72009 3.77699 -76.53472 -4.95981 -0.35940 67.30667 -1.96226 6.51956 7.56704 -3.08366 -10.79882 -77.11785 -3.61515 -24.00145 71.06343 9.89033 -12.47431 7.13974 1.61613 5.67466 66.30432 -4.38013 1.52768 -8.35304 4.47446 3.58169 5.92040 -9.47645 -3.89703 -5.35796 17.88311 -26.11944 -15.52732 -37.61547 -39.37304 2.14224 17.25742 -26.71582 -12.41731 -22.06165 29.99090 -9.18307 43.60402 31.82231 -4.16697 -16.27575 14.05623 -8.93380
544.57199 -112.41564 1.33478 144.88002 66.56803 118.97311 20.38879 4.22512 -85.16352 -8.51066 6.08461 94.44279 1.27934 4.80069 4.07260 -4.24202 -11.52740 -81.66015 -3.30836 -22.37124 95.49580 5.72877 -9.04161 0.54995 2.53653 3.96795 71.59962 -3.95927 2.34675 -7.17583 3.71054 3.09599 4.44062 -10.75842 -3.32435 -2.46903 15.45848 -31.26608 -15.67131 -25.37124 -36.61253 -3.02472 14.27652 -27.69513 -10.86997 -19.85590 34.56780 -10.04502 26.09952 28.47174 -12.40759 -11.40944 10.36777 -12.19813
563.67582 -134.12321 1.37381 153.47999 69.25987 124.65276 18.81499 1.80631 -91.34079 -9.34505 12.24302 114.30213 7.06609 2.79150 -5.00176 -3.61286 -12.89266 -90.50726 -4.27501 -23.46133 114.63385 9.44875 -7.77464 -4.79485 4.92480 4.68839 72.24868 -3.77872 4.56155 -11.14689 2.88567 5.79297 4.94919 -8.44753 -4.53619 -4.30059 16.27162 -33.71767 -20.38987 -20.01782 -39.45797 -6.85163 9.34844 -24.29479 -6.48476 -18.96962 35.31736 -9.75822 17.92758 20.70620 -16.06619 -13.39532 13.53832 -7.02427
581.80367 -151.18815 1.43315 165.43907 72.34862 128.83356 15.96088 -4.14512 -91.36539 -9.81885 13.48962 130.91944 11.34181 5.55422 -10.66253 -1.45346 -12.13194 -93.55907 -7.81377 -25.38599 132.54021 4.74859 -6.31221 -15.65688 7.07597 3.22825 76.72401 -4.19376 5.68931 -12.26287 3.96458 7.02033 5.37578 -11.46608 -4.40702 -0.37273 24.22216 -34.57661 -25.41689 -13.30161 -36.05074 -8.40696 4.22585 -21.07290 1.78983 -27.21995 38.05256 -13.06939 10.00325 15.01627 -20.26003 -8.15543 11.97500 -1.19479
596.67798 -160.82150 1.43260 171.95703 76.71102 132.60764 16.00500 -5.02195 -93.67259 -10.10214 15.47106 140.55596 11.77230 5.33942 -15.05070 -0.10645 -12.12103 -94.12332 -10.34415 -25.63497 141.47094 3.83840 -6.47425 -19.01512 7.85136 3.73813 78.87577 -4.97882 6.88702 -13.92329 3.86013 8.54610 5.32547 -11.26975 -4.68348 -1.66511 26.22350 -33.00710 -27.72518 -7.98426 -33.30575 -12.46798 8.60712 -22.55684 -6.91845 -32.32545 37.89444 -17.06586 4.78799 13.75565 -24.67812 -13.26878 14.46395 -10.12072
608.08745 -162.72739 1.41568 -178.20961 79.77932 142.05718 16.63086 -6.80131 -94.09395 -11.05709 15.03369 144.78106 8.99336 5.94550 -13.90978 1.79469 -11.51524 -93.18217 -11.24654 -26.62317 146.00059 6.30127 -9.38303 -19.56248 7.65031 4.98057 77.04130 -4.11864 6.84156 -12.02353 4.49928 9.12646 5.71205 -7.01554 -4.02415 -2.45097 30.47770 -33.06263 -30.60543 -3.75724 -30.80959 -15.41085 10.39572 -23.54126 -17.00058 -37.87602 39.66560 -20.34526 -0.12330 12.11642 -29.11480 -13.38209 13.72942 -16.96599
612.33675 -161.46981 1.40177 171.97812 79.05011 135.17403 16.38947 -7.49851 -93.55642 -10.19761 14.33237 146.21009 10.41941 5.57915 -8.88010 3.21988 -10.53137 -93.92627 -11.67856 -27.15058 148.10244 6.62951 -8.26246 -11.46623 6.48829 5.25703 76.24722 -4.83604 6.45266 -12.65147 3.36941 8.21494 5.90187 -3.97981 -3.80078 -3.93622 30.55596 -32.26939 -31.39391 -1.04107 -32.22685 -18.67500 13.50003 -24.98642 -26.70272 -39.89017 36.57824 -22.71334 -0.88238 14.21170 -28.80495 -18.90486 21.15226 -26.42945
612.96199 -154.35067 1.37455 158.99213 81.16943 126.42226 17.82737 -5.23350 -91.06371 -9.11336 13.66574 145.17198 9.02380 6.74151 -11.74898 1.86146 -7.77681 -92.44026 -9.63915 -24.76426 145.31949 8.10010 -9.55042 -9.71269 4.12614 6.25564 73.31553 -5.50545 5.57086 -11.04159 2.80658 7.78321 5.13670 -3.40857 -2.12637 -3.78177 30.95844 -32.30267 -30.98068 0.77166 -29.61512 -20.01273 16.99854 -29.48777 -29.46286 -41.63569 36.21946 -25.07179 -1.11641 18.20267 -28.62033 -24.28204 26.74924 -29.54840
